<?xml version="1.0" standalone="no"?>
<!DOCTYPE svg PUBLIC "-//W3C//DTD SVG 20010904//EN"
 "http://www.w3.org/TR/2001/REC-SVG-20010904/DTD/svg10.dtd">
<svg version="1.0" xmlns="http://www.w3.org/2000/svg"
 width="225.000000pt" height="225.000000pt" viewBox="0 0 225.000000 225.000000"
 preserveAspectRatio="xMidYMid meet">

<g transform="translate(0.000000,225.000000) scale(0.100000,-0.100000)"
fill="#000000" stroke="none">
<path d="M975 1986 c-309 -61 -560 -275 -656 -559 -138 -412 41 -851 426
-1045 346 -174 784 -82 1030 215 401 484 168 1215 -437 1374 -97 25 -272 33
-363 15z m277 -100 c296 -57 524 -268 599 -555 26 -97 28 -258 5 -355 -87
-368 -447 -622 -816 -575 -514 64 -813 598 -596 1064 141 303 486 483 808 421z"/>
<path d="M944 1476 c-72 -76 -109 -226 -68 -284 35 -51 115 -7 165 89 l20 41
-22 24 -22 24 31 0 c32 0 32 0 32 53 0 107 -61 131 -136 53z"/>
<path d="M1226 1440 c-33 -40 -46 -89 -46 -175 1 -183 110 -233 165 -76 14 43
14 46 -7 68 l-21 23 21 0 c19 0 22 6 22 38 0 125 -74 192 -134 122z"/>
<path d="M552 1374 c-35 -18 -62 -59 -62 -93 0 -19 1 -19 25 4 13 14 28 25 32
25 4 0 7 -33 5 -74 -7 -145 51 -282 167 -396 174 -171 420 -212 631 -105 105
53 214 173 247 270 l16 50 17 -38 c19 -43 30 -39 30 11 0 69 -45 112 -120 112
-30 0 -45 -7 -69 -31 -41 -41 -42 -64 -2 -41 43 24 48 9 18 -54 -40 -81 -105
-145 -194 -190 -75 -38 -78 -39 -188 -39 -108 0 -113 1 -186 37 -79 39 -160
112 -204 183 -35 56 -65 158 -65 219 0 71 11 85 39 50 28 -36 39 -23 21 28
-26 71 -96 103 -158 72z"/>
</g>
</svg>
